<svg width="148" height="31" viewBox="0 0 148 31" fill="none" xmlns="http://www.w3.org/2000/svg">
<path d="M0.116406 30V1.2H11.6364C13.6897 1.2 15.3497 1.61333 16.6164 2.44C17.8831 3.25333 18.8097 4.28 19.3964 5.52C19.9831 6.76 20.2764 8.01333 20.2764 9.28C20.2764 10.8933 19.9097 12.2333 19.1764 13.3C18.4564 14.3667 17.4631 15.08 16.1964 15.44V14.44C17.9964 14.8133 19.3431 15.6467 20.2364 16.94C21.1431 18.2333 21.5964 19.68 21.5964 21.28C21.5964 23 21.2764 24.5133 20.6364 25.82C20.0097 27.1267 19.0497 28.1533 17.7564 28.9C16.4631 29.6333 14.8364 30 12.8764 30H0.116406ZM5.63641 24.88H12.3164C13.0497 24.88 13.7031 24.7267 14.2764 24.42C14.8497 24.1 15.2964 23.66 15.6164 23.1C15.9497 22.5267 16.1164 21.8533 16.1164 21.08C16.1164 20.4 15.9764 19.7933 15.6964 19.26C15.4164 18.7267 14.9897 18.3067 14.4164 18C13.8564 17.68 13.1564 17.52 12.3164 17.52H5.63641V24.88ZM5.63641 12.44H11.5564C12.1697 12.44 12.7164 12.3333 13.1964 12.12C13.6764 11.9067 14.0564 11.58 14.3364 11.14C14.6164 10.6867 14.7564 10.1067 14.7564 9.4C14.7564 8.52 14.4831 7.78 13.9364 7.18C13.3897 6.58 12.5964 6.28 11.5564 6.28H5.63641V12.44ZM28.9852 30V1.2H34.4252V24.92H46.8252V30H28.9852ZM64.8045 30.6C61.9245 30.6 59.4379 29.9733 57.3445 28.72C55.2645 27.4667 53.6579 25.7133 52.5245 23.46C51.4045 21.2067 50.8445 18.5867 50.8445 15.6C50.8445 12.6133 51.4045 9.99333 52.5245 7.74C53.6579 5.48667 55.2645 3.73333 57.3445 2.48C59.4379 1.22667 61.9245 0.599999 64.8045 0.599999C67.6845 0.599999 70.1645 1.22667 72.2445 2.48C74.3379 3.73333 75.9445 5.48667 77.0645 7.74C78.1979 9.99333 78.7645 12.6133 78.7645 15.6C78.7645 18.5867 78.1979 21.2067 77.0645 23.46C75.9445 25.7133 74.3379 27.4667 72.2445 28.72C70.1645 29.9733 67.6845 30.6 64.8045 30.6ZM64.8045 25.48C66.6312 25.5067 68.1512 25.1133 69.3645 24.3C70.5779 23.4867 71.4845 22.3333 72.0845 20.84C72.6979 19.3467 73.0045 17.6 73.0045 15.6C73.0045 13.6 72.6979 11.8667 72.0845 10.4C71.4845 8.93333 70.5779 7.79333 69.3645 6.98C68.1512 6.16667 66.6312 5.74667 64.8045 5.72C62.9779 5.69333 61.4579 6.08666 60.2445 6.9C59.0312 7.71333 58.1179 8.86666 57.5045 10.36C56.9045 11.8533 56.6045 13.6 56.6045 15.6C56.6045 17.6 56.9045 19.3333 57.5045 20.8C58.1179 22.2667 59.0312 23.4067 60.2445 24.22C61.4579 25.0333 62.9779 25.4533 64.8045 25.48ZM98.117 30.6C95.237 30.6 92.7504 29.9733 90.657 28.72C88.577 27.4667 86.9704 25.7133 85.837 23.46C84.717 21.2067 84.157 18.5867 84.157 15.6C84.157 12.6133 84.717 9.99333 85.837 7.74C86.9704 5.48667 88.577 3.73333 90.657 2.48C92.7504 1.22667 95.237 0.599999 98.117 0.599999C100.997 0.599999 103.477 1.22667 105.557 2.48C107.65 3.73333 109.257 5.48667 110.377 7.74C111.51 9.99333 112.077 12.6133 112.077 15.6C112.077 18.5867 111.51 21.2067 110.377 23.46C109.257 25.7133 107.65 27.4667 105.557 28.72C103.477 29.9733 100.997 30.6 98.117 30.6ZM98.117 25.48C99.9437 25.5067 101.464 25.1133 102.677 24.3C103.89 23.4867 104.797 22.3333 105.397 20.84C106.01 19.3467 106.317 17.6 106.317 15.6C106.317 13.6 106.01 11.8667 105.397 10.4C104.797 8.93333 103.89 7.79333 102.677 6.98C101.464 6.16667 99.9437 5.74667 98.117 5.72C96.2904 5.69333 94.7704 6.08666 93.557 6.9C92.3437 7.71333 91.4304 8.86666 90.817 10.36C90.217 11.8533 89.917 13.6 89.917 15.6C89.917 17.6 90.217 19.3333 90.817 20.8C91.4304 22.2667 92.3437 23.4067 93.557 24.22C94.7704 25.0333 96.2904 25.4533 98.117 25.48ZM119.07 30V1.2H123.95L133.47 20.32L142.99 1.2H147.87V30H142.79V12.8L134.43 30H132.51L124.15 12.8V30H119.07Z" fill="#1A1A1A"/>
</svg>
